<svg xmlns="http://www.w3.org/2000/svg" viewBox="0 0 64 64">
  <circle cx="32" cy="32" r="30" fill="#ffffff" stroke="#000000" stroke-width="2"/>
  <polygon points="32,10 38,18 38,28 32,34 26,28 26,18" fill="#000000"/>
  <polygon points="32,54 38,46 38,36 32,30 26,36 26,46" fill="#000000"/>
  <polygon points="10,32 18,26 28,26 34,32 28,38 18,38" fill="#000000"/>
  <polygon points="54,32 46,38 36,38 30,32 36,26 46,26" fill="#000000"/>
  <polygon points="18,18 26,12 38,12 46,18 40,26 24,26" fill="#000000"/>
  <polygon points="46,46 38,52 26,52 18,46 24,38 40,38" fill="#000000"/>
</svg>